# Blender 4.0.1
# www.blender.org
mtllib timber.mtl
o Objecttimberdancer
v -13.000000 12.999998 -22.000002
v -32.000000 12.999999 -13.000001
v -16.000000 12.999999 -13.000001
v -28.000000 13.999999 -8.000001
v -19.000000 9.000001 8.999999
v 27.000000 18.000000 -7.000001
v 28.000000 13.999999 -8.000001
v 15.000000 17.000000 -12.000001
v 16.000000 17.000000 0.999999
v 17.000000 78.000000 -0.000006
v 28.000000 97.000000 -13.000008
v -9.000000 79.000000 -19.000006
v 18.000000 119.000000 -10.000009
v 25.000000 106.000000 -5.000008
v 16.000000 84.000000 -20.000006
v -16.000000 84.000000 -20.000006
v -28.000000 97.000000 -13.000008
v -17.000000 114.000000 -25.000010
v -16.000000 17.000000 0.999999
v -19.000000 41.000000 -19.000004
v 4.000000 28.000000 9.999998
v -30.000000 64.000000 3.999995
v 30.000000 76.000000 -0.000006
v 30.000000 64.000000 3.999995
v 30.000000 64.000000 -7.000005
v -30.000000 76.000000 -0.000006
v -39.000000 64.000000 -6.000005
v -30.000000 64.000000 -7.000005
v 23.000000 127.000000 -12.000010
v -18.000000 119.000000 -10.000009
v -23.000000 127.000000 -12.000010
v 3.000000 88.000000 -41.000008
v 9.000000 113.000000 1.999991
v 17.000000 118.000000 -1.000009
v 0.000000 130.000000 -3.000010
v 14.000000 128.000000 -8.000010
v -14.000000 128.000000 -8.000010
v -17.000000 118.000000 -1.000009
v -9.000000 113.000000 1.999991
v -20.000000 0.000001 10.000000
v -7.000000 0.000000 4.000000
v 0.000000 76.000000 -30.000006
v -6.000000 95.000000 -36.000008
v -6.000000 94.000000 -41.000008
v -17.000000 92.000000 -26.000008
v -5.000000 78.000000 -35.000008
v 38.000000 -0.000001 -18.000000
v 9.000000 79.000000 -19.000006
v 15.000000 129.000000 -14.000010
v -15.000000 130.000000 -13.000010
v 0.000000 124.000000 -9.000010
v 22.000000 129.000000 -7.000010
v -18.000000 110.000000 1.999992
v 0.000000 101.000000 7.999992
v 13.000000 121.000000 -19.000010
v 4.000000 28.000002 35.999996
v -4.000000 28.000002 35.999996
v -4.000000 39.000004 33.999996
v 39.000000 64.000000 5.999995
v 56.000000 67.000000 7.999995
v 40.000000 75.000000 -0.000006
v 55.000000 77.000000 -3.000006
v 39.000000 64.000000 -6.000005
v 54.000000 56.000000 -0.000004
v 0.000000 33.000004 44.999996
v 4.000000 39.000004 33.999996
v -40.000000 75.000000 -0.000006
v -56.000000 67.000000 7.999995
v -39.000000 64.000000 5.999995
v -55.000000 77.000000 -3.000006
v -58.000000 65.000000 -12.000005
v -54.000000 56.000000 -3.000004
v 58.000000 65.000000 -12.000005
v 15.000000 120.000000 -21.000010
v 0.000000 133.000000 -19.000010
v -15.000000 120.000000 -21.000010
v 19.000000 132.000000 -12.000010
v -31.000000 118.000000 -5.000009
v -25.000000 106.000000 -5.000008
v 28.000000 119.000000 -3.000009
v 31.000000 118.000000 -5.000009
v 11.000000 121.000000 -27.000010
v 16.000000 114.000000 -25.000010
v 1.000000 118.000000 -31.000010
v -28.000000 119.000000 -3.000009
v -22.000000 129.000000 -7.000010
v -19.000000 132.000000 -12.000010
v -1.000000 118.000000 -31.000010
v -16.000000 114.000000 -25.000010
v -11.000000 121.000000 -27.000010
v -12.000000 -0.000002 -30.000000
v -9.000000 9.000000 2.999999
v -38.000000 -0.000001 -18.000000
v 12.000000 -0.000002 -30.000000
v 7.000000 0.000000 4.000000
v 20.000000 0.000001 10.000000
v 15.000000 13.000000 2.999999
v 9.000000 9.000000 2.999999
v 19.000000 9.000001 8.999999
v 32.000000 12.999999 -13.000001
v 16.000000 12.999999 -13.000001
v 13.000000 12.999998 -22.000002
v 0.000000 27.000000 6.999998
v -23.000000 42.000000 3.999997
v 18.000000 65.000000 2.999995
v -4.000000 28.000000 9.999998
v -27.000000 18.000000 -7.000001
v -15.000000 13.000000 2.999999
v 18.000000 110.000000 1.999992
v -13.000000 121.000000 -19.000010
v 23.000000 42.000000 3.999997
v 0.000000 40.000000 11.999997
v 0.000000 79.000000 6.999994
v -18.000000 65.000000 2.999995
v 0.000000 24.999998 -16.000002
v -15.000000 17.000000 -12.000001
v 0.000000 42.000000 -24.000004
v 18.000000 64.000000 -10.000005
v 19.000000 41.000000 -19.000004
v -18.000000 64.000000 -10.000005
v -17.000000 78.000000 -0.000006
v 0.000000 64.000000 -16.000006
v 0.000000 75.000000 -12.000006
v 5.000000 78.000000 -35.000008
v 0.000000 76.000000 -36.000008
v 0.000000 82.000000 -36.000008
v 7.000000 84.000000 -33.000008
v 0.000000 84.000000 -39.000008
v 10.000000 89.000000 -33.000008
v -7.000000 84.000000 -33.000008
v -10.000000 89.000000 -33.000008
v -3.000000 88.000000 -41.000008
v 17.000000 114.000000 -25.000010
v 0.000000 114.000000 -32.000008
v 0.000000 100.000000 -37.000008
v 0.000000 99.000000 -42.000008
v 0.000000 94.000000 -44.000008
v 6.000000 94.000000 -41.000008
v 6.000000 95.000000 -36.000008
v 17.000000 92.000000 -26.000008
v 0.000000 121.000000 -27.000010
v -18.000000 126.000000 -43.000008
v 18.000000 126.000000 -43.000008
vn 0.2876 0.8166 0.5004
vn 0.1333 0.9559 -0.2617
vn 0.1359 -0.3653 0.9209
vn 0.3230 -0.5388 -0.7780
vn -0.6766 0.7179 0.1634
vn -0.9980 0.0084 -0.0620
vn 0.4148 0.7444 -0.5233
vn -0.6844 0.7210 -0.1082
vn -0.2035 0.4606 0.8640
vn 0.7906 0.4872 0.3710
vn 0.9980 0.0084 -0.0620
vn -0.2876 0.8166 0.5004
vn 0.6766 0.7179 0.1634
vn -0.3230 -0.5388 -0.7780
vn -0.1333 0.9559 -0.2617
vn -0.1359 -0.3653 0.9209
vn 0.9514 0.0125 0.3076
vn 0.8342 0.1236 0.5375
vn 0.9869 -0.1012 -0.1254
vn 0.6762 -0.6403 -0.3643
vn 0.3887 -0.8960 -0.2148
vn -0.0000 -0.5285 -0.8489
vn -0.3887 -0.8960 -0.2148
vn -0.8342 0.1236 0.5375
vn -0.6762 -0.6403 -0.3643
vn -0.9869 -0.1012 -0.1254
vn -0.9514 0.0125 0.3076
vn 0.3391 0.6830 -0.6469
vn 0.7262 -0.0973 -0.6806
vn 0.6813 0.4686 -0.5624
vn 0.7524 -0.2167 -0.6221
vn -0.7524 -0.2167 -0.6221
vn -0.6813 0.4686 -0.5624
vn -0.3391 0.6830 -0.6469
vn -0.7262 -0.0973 -0.6806
vn -0.8386 0.0905 0.5371
vn -0.6444 0.0639 -0.7620
vn -0.3635 -0.6429 0.6742
vn -0.0000 -0.9347 0.3554
vn 0.6444 0.0639 -0.7620
vn 0.8386 0.0905 0.5371
vn 0.3635 -0.6429 0.6742
vn 0.1402 0.9810 0.1343
vn -0.0841 -0.5847 0.8069
vn -0.1706 0.9845 0.0407
vn -0.3069 -0.4053 0.8611
vn 0.1546 -0.5179 -0.8413
vn -0.2547 -0.4543 -0.8537
vn 0.3035 0.1873 0.9343
vn -0.0000 0.1797 0.9837
vn -0.3035 0.1873 0.9343
vn -0.0000 0.0644 0.9979
vn -0.1402 0.9810 0.1343
vn -0.6063 0.2098 -0.7671
vn -0.1546 -0.5179 -0.8413
vn 0.0841 -0.5847 0.8069
vn -0.4568 -0.0868 0.8853
vn 0.4568 -0.0868 0.8853
vn 0.6063 0.2098 -0.7671
vn 0.1706 0.9845 0.0407
vn 0.2764 -0.4452 -0.8517
vn 0.2828 -0.4169 0.8638
vn 0.7760 0.2229 -0.5900
vn 0.9991 0.0367 -0.0190
vn -0.9991 0.0367 -0.0190
vn -0.7760 0.2229 -0.5900
vn -0.0000 -0.7256 -0.6881
vn -0.4023 -0.4624 -0.7902
vn -0.0000 0.0283 -0.9996
vn -0.7640 0.2471 -0.5960
vn 0.7640 0.2471 -0.5960
vn 0.4023 -0.4624 -0.7902
vn 0.0756 0.3180 0.9451
vn 0.2197 0.4551 0.8629
vn -0.0000 0.7673 0.6413
vn 0.2790 0.8461 0.4541
vn -0.2314 0.8308 0.5061
vn -0.2197 0.4551 0.8629
vn -0.0756 0.3180 0.9451
vn -0.2639 -0.5316 0.8048
vn -0.8668 -0.3809 -0.3220
vn 0.3861 -0.3674 -0.8462
vn 0.7675 -0.5116 0.3862
vn -0.0000 -0.9990 0.0447
vn -0.0000 -0.7391 -0.6736
vn 0.6143 -0.4785 -0.6275
vn 0.7713 -0.2108 -0.6005
vn 0.7325 0.4506 -0.5103
vn -0.7713 -0.2108 -0.6005
vn -0.7325 0.4506 -0.5103
vn -0.6143 -0.4785 -0.6275
vn -0.3861 -0.3674 -0.8462
vn 0.8668 -0.3809 -0.3220
vn 0.2639 -0.5316 0.8048
vn -0.7675 -0.5116 0.3862
vn 0.0034 0.9036 -0.4283
vn 0.3335 0.9001 -0.2805
vn -0.2494 0.9575 -0.1448
vn -0.0000 0.9554 0.2953
vn 0.4041 0.7462 0.5290
vn -0.4041 0.7462 0.5290
vn -0.0000 0.5898 -0.8075
vn -0.0000 0.2548 0.9670
vn 0.7046 -0.6659 0.2450
vn 0.7107 0.6781 0.1874
vn -0.7046 -0.6659 0.2450
vn -0.7107 0.6781 0.1874
vn 0.5604 0.0710 0.8251
vn 0.4105 0.8980 -0.1586
vn 0.5594 -0.0999 -0.8228
vn 0.3363 -0.9355 0.1086
vn -0.0000 0.0170 0.9999
vn -0.5553 0.0204 0.8314
vn -0.4105 0.8980 -0.1586
vn -0.5722 -0.0598 -0.8179
vn -0.3208 -0.9462 -0.0428
vn 0.2398 0.8892 -0.3896
vn -0.0000 0.9772 -0.2124
vn -0.2428 0.8901 -0.3856
vn 0.4960 0.3353 0.8010
vn 0.1489 0.9572 -0.2484
vn -0.1489 0.9572 -0.2484
vn -0.4960 0.3353 0.8010
vn 0.3714 -0.0000 -0.9285
vn -0.3714 -0.0000 -0.9285
vn -0.7906 0.4872 0.3710
vn -0.4148 0.7444 -0.5233
vn 0.6844 0.7210 -0.1082
vn 0.2035 0.4606 0.8640
vn -0.0000 -0.7221 -0.6918
vn -0.0000 -0.0219 -0.9998
vn -0.0000 0.4005 -0.9163
vn -0.0000 -0.3949 -0.9187
vn 0.7315 -0.4051 -0.5484
vn -0.7315 -0.4051 -0.5484
vn -0.0000 0.6592 -0.7520
vn -0.0000 0.8146 -0.5800
vn 0.0186 0.9601 0.2791
vn -0.0186 0.9601 0.2791
vt 0.779297 0.781250
vt 0.691406 0.777344
vt 0.712891 0.913086
vt 0.755859 0.901367
vt 0.136719 0.805664
vt 0.228516 0.935547
vt 0.868164 0.800781
vt -0.072266 0.790039
vt 0.542969 0.656250
vt 1.036133 0.662109
vt 0.960938 0.784180
vt 0.903320 0.152344
vt 0.679688 0.560547
vt 0.328125 0.264648
vt 0.346680 0.140625
vt 0.548828 0.052734
vt 0.691406 1.128906
vt 0.910156 1.077148
vt 0.478516 0.951172
vt 0.356445 0.461914
vt 0.438477 0.024414
vt 1.166016 -0.042969
vt 1.672852 0.882812
vt -0.033203 0.055664
vt 0.345703 0.012695
vt -0.092773 1.037109
vt 1.547852 0.877930
vt 0.447266 -0.035156
vt -0.575195 0.466797
vt -0.870117 0.440430
vt -0.188477 0.946289
vt 0.783203 0.382812
vt -0.066406 0.342773
vt 0.714844 0.715820
vt -0.051758 0.652344
vt -0.110352 0.339844
vt -0.111328 0.650391
vt -0.302734 0.900391
vt 0.847656 0.659180
vt -0.236328 -0.128906
vt 0.980469 -0.031250
vt -0.110352 0.029297
vt 0.851562 0.048828
vt -0.080078 0.033203
vt 0.193359 0.673828
vt 0.445312 0.894531
vt 0.398438 0.662109
vt 0.751953 0.578125
vt 0.734375 0.248047
vt 0.623047 -0.285156
vt 0.931641 0.238281
vt 0.386719 0.990234
vt 1.115234 0.919922
vt 1.000000 0.000000
vt 1.501953 0.222656
vt 0.498047 0.947266
vt 1.281250 0.828125
vt -0.281250 0.828125
vt -0.501953 0.222656
vt 0.000000 0.000000
vt 0.445312 0.156250
vt 1.064453 0.773438
vt 1.328125 0.429688
vt 0.570312 -0.013672
vt 0.867188 0.064453
vt 0.865234 0.093750
vt 1.035156 0.128906
vt 1.103516 0.212891
vt 2.828125 1.878906
vt 2.617188 2.126953
vt 2.619141 1.603516
vt 2.974609 2.226562
vt 3.000000 1.722656
vt 2.865234 2.255859
vt 0.859375 0.162109
vt 0.853516 -0.169922
vt 0.800781 -0.212891
vt 0.765625 -0.421875
vt 0.464844 1.191406
vt 0.476562 -0.054688
vt 1.591797 0.152344
vt 1.617188 0.742188
vt -0.572266 0.115234
vt -0.615234 0.705078
vt 1.263672 1.601562
vt 0.007812 0.160156
vt -0.542969 1.863281
vt 1.589844 -0.683594
vt 0.445312 0.042969
vt 0.708984 0.644531
vt 0.363281 0.763672
vt 0.902344 0.179688
vt -1.119141 0.810547
vt 0.759766 0.310547
vt -1.273438 0.117188
vt 0.685547 0.865234
vt -1.421875 0.121094
vt 0.605469 0.312500
vt 0.603516 0.312500
vt 0.546875 0.867188
vt -0.025391 0.263672
vt 1.410156 0.177734
vt -0.041016 0.923828
vt 1.087891 1.138672
vt -0.005859 0.957031
vt 1.019531 1.033203
vt 0.056641 0.216797
vt 1.333984 0.005859
vt 1.039062 0.054688
vt 0.011719 0.185547
vt 1.089844 0.246094
vt 0.042969 0.861328
vt 1.136719 0.759766
vt 1.369141 0.580078
vt 0.677734 0.226562
vt 0.685547 0.439453
vt 0.691406 0.500000
vt 0.443359 1.046875
vt 0.324219 0.126953
vt 1.068359 1.111328
vt 0.265625 0.931641
vt 1.136719 0.082031
vt -1.359375 1.125000
vt -1.759766 1.890625
vt -1.554688 2.007812
vt -0.976562 3.068359
vt -1.251953 2.730469
vt -0.523438 2.419922
vt 1.277344 2.824219
vt 1.998047 3.460938
vt 1.716797 3.673828
vt 2.312500 2.876953
vt 2.517578 2.851562
vt 2.134766 1.910156
vt -1.160156 2.857422
vt -0.402344 2.429688
vt -0.814453 1.804688
vt 0.220703 2.310547
vt 1.902344 3.544922
vt 0.537109 2.382812
vt 1.578125 2.341797
vt 1.156250 2.779297
vt 0.637695 0.264648
vt 0.398438 0.208008
vt 0.695312 0.631836
vt 0.544922 0.754883
vt 0.913086 0.244141
vt 0.732422 0.315430
vt 0.824219 0.624023
vt 0.699219 0.565430
vt 1.028320 0.039062
vt 0.030273 0.015625
vt 0.936523 0.744141
vt 0.173828 0.722656
vt 0.406250 0.584961
vt 0.649414 0.376953
vt 0.626953 0.584961
vt 0.391602 0.373047
vt 0.422852 0.957031
vt 0.609375 0.870117
vt 0.172852 0.861328
vt 0.152344 0.691406
vt 0.146484 0.582031
vt 0.231445 0.679688
vt 0.138672 0.656250
vt 0.704102 0.655273
vt 0.845703 0.694336
vt 0.776367 0.663086
vt 0.886719 0.608398
vt 0.693359 0.558594
vt -0.382812 0.285156
vt 0.281250 0.468750
vt -0.181641 0.314453
vt 0.279297 2.119141
vt 0.195312 1.447266
vt 0.457031 1.798828
vt 0.230469 0.835938
vt 5.816406 3.589844
vt 6.101562 3.505859
vt 6.593750 3.548828
vt 3.251953 4.503906
vt 2.716797 2.466797
vt 2.832031 4.369141
vt 3.527344 2.792969
vt 4.707031 2.705078
vt 4.626953 2.884766
vt 1.976562 -0.035156
vt 3.869141 0.496094
vt 1.765625 0.328125
vt -14.240234 23.689453
vt -14.566406 44.353516
vt -22.990234 -50.992188
vt -14.294922 19.115234
vt 0.726562 1.728516
vt -0.126953 2.023438
vt 0.167969 1.464844
vt 1.164062 1.240234
vt 1.363281 1.689453
vt -0.051758 0.100586
vt 0.092773 0.657227
vt 1.006836 0.063477
vt 0.906250 1.009766
vt 0.820312 -0.235352
vt 0.089844 0.963867
vt 0.582031 0.044922
vt 0.291016 -0.109375
vt 0.186523 0.281250
vt 0.576172 0.312500
vt 0.223633 0.669922
vt 0.566406 0.689453
vt 0.171875 0.884766
vt 0.562500 0.871094
vt -0.031250 0.123047
vt -0.152344 0.126953
vt 0.087891 0.396484
vt 0.478516 0.271484
vt 0.058594 0.033203
vt 0.142578 0.320312
vt 1.091797 -0.203125
vt 1.076172 0.109375
vt 0.076172 0.515625
vt 0.109375 0.699219
vt 0.625000 0.595703
vt 0.918945 0.988281
vt 0.032227 0.936523
vt 0.793945 1.437500
vt 0.314453 0.000000
vt 0.084961 1.021484
vt 0.020508 0.233398
vt 1.011719 1.030273
vt 0.873047 -0.143555
vt 0.323242 -0.025391
vt 0.017578 0.194336
vt 0.000000 -0.036133
vt -0.130859 -0.069336
vt -0.053711 0.170898
vt 0.184570 -0.096680
vt 0.499023 0.333984
vt -0.051758 0.996094
vt 0.030273 0.059570
vt 0.967773 0.059570
vt 1.050781 0.996094
s 1
usemtl imageList0004
f 108/1/1 3/2/2 19/3/3
f 19/3/3 3/2/2 116/4/4
f 3/2/2 4/5/5 116/4/4
f 116/4/4 4/5/5 107/6/6
f 4/5/5 108/1/1 107/6/6
f 1/7/7 2/8/8 3/2/2
f 3/2/2 2/8/8 4/5/5
f 2/8/8 5/9/9 4/5/5
f 92/10/10 1/7/7 108/1/1
f 5/9/9 92/10/10 108/1/1
f 108/1/1 1/7/7 3/2/2
f 4/5/5 5/9/9 108/1/1
f 6/6/11 97/1/12 7/5/13
f 6/6/11 7/5/13 8/4/14
f 8/4/14 7/5/13 101/2/15
f 8/4/14 101/2/15 9/3/16
f 9/3/16 101/2/15 97/1/12
usemtl imageList0005
f 14/11/17 10/12/18 11/13/19
f 11/13/19 10/12/18 15/14/20
f 15/14/20 10/12/18 48/15/21
f 10/12/18 123/16/22 48/15/21
f 12/15/23 123/16/22 121/12/24
f 12/15/23 121/12/24 16/14/25
f 16/14/25 121/12/24 17/13/26
f 17/13/26 121/12/24 79/11/27
f 55/17/28 13/18/29 11/13/19
f 13/18/29 14/11/17 11/13/19
f 11/13/19 133/19/30 55/17/28
f 11/13/19 140/20/31 133/19/30
f 140/20/31 11/13/19 15/14/20
f 16/14/25 17/13/26 45/20/32
f 18/19/33 45/20/32 17/13/26
f 110/17/34 18/19/33 17/13/26
f 17/13/26 79/11/27 30/18/35
f 17/13/26 30/18/35 110/17/34
usemtl imageList0006
f 107/21/6 19/22/3 104/23/36
f 116/24/4 107/25/6 20/26/37
f 104/27/36 19/28/3 106/29/38
f 103/30/39 106/29/38 19/28/3
f 107/21/6 104/23/36 20/31/37
f 119/31/40 111/23/41 6/21/11
f 9/28/16 21/29/42 103/30/39
f 21/29/42 9/28/16 111/27/41
f 119/26/40 6/25/11 8/24/14
f 111/23/41 9/22/16 6/21/11
f 23/32/43 24/33/44 61/34/45
f 59/35/46 24/33/44 25/36/47
f 59/35/46 25/36/47 63/37/48
f 24/33/44 59/35/46 61/34/45
f 25/36/47 23/32/43 63/37/48
f 63/37/48 23/32/43 61/34/45
f 109/38/49 54/39/50 10/40/18
f 121/40/24 54/39/50 53/38/51
f 10/40/18 54/39/50 113/41/52
f 113/41/52 54/39/50 121/40/24
f 26/32/53 120/42/54 28/36/55
f 26/32/53 121/43/24 120/42/54
f 28/36/55 120/42/54 22/33/56
f 120/42/54 114/44/57 22/33/56
f 22/33/56 114/44/57 26/32/53
f 114/44/57 121/43/24 26/32/53
f 23/32/43 10/43/18 105/44/58
f 23/32/43 105/44/58 24/33/44
f 24/33/44 105/44/58 118/42/59
f 24/33/44 118/42/59 25/36/47
f 118/42/59 10/43/18 23/32/43
f 25/36/47 118/42/59 23/32/43
f 67/34/60 26/32/53 27/37/61
f 27/37/61 26/32/53 28/36/55
f 67/34/60 69/35/62 22/33/56
f 27/37/61 28/36/55 69/35/62
f 28/36/55 22/33/56 69/35/62
f 67/34/60 22/33/56 26/32/53
usemtl imageList0007
f 55/45/28 29/46/63 13/47/29
f 13/47/29 29/46/63 81/48/64
f 14/49/17 13/47/29 81/48/64
f 78/48/65 30/47/35 79/49/27
f 78/48/65 31/46/66 30/47/35
f 30/47/35 31/46/66 110/45/34
usemtl imageList0008
f 128/50/67 132/51/68 137/52/69
f 132/51/68 44/53/70 137/52/69
f 137/52/69 138/53/71 32/51/72
f 137/52/69 32/51/72 128/50/67
usemtl imageList0009CullBoth
f 33/54/73 34/55/74 35/56/75
f 35/56/75 34/55/74 36/57/76
f 37/58/77 38/59/78 35/56/75
f 35/56/75 38/59/78 39/60/79
f 39/60/79 33/54/73 35/56/75
usemtl imageList000A
f 40/61/80 93/62/81 91/63/82
f 41/64/83 40/61/80 91/63/82
f 42/65/84 125/66/85 124/67/86
f 124/67/86 48/68/21 42/65/84
f 129/69/87 140/70/31 15/71/20
f 138/72/71 129/69/87 32/73/72
f 129/69/87 139/74/88 140/70/31
f 138/72/71 139/74/88 129/69/87
f 131/69/89 43/74/90 44/72/70
f 45/70/32 43/74/90 131/69/89
f 132/73/68 131/69/89 44/72/70
f 16/71/25 45/70/32 131/69/89
f 48/75/21 12/68/23 42/65/84
f 42/65/84 12/68/23 46/67/91
f 46/67/91 125/66/85 42/65/84
f 94/63/92 47/62/93 96/61/94
f 94/63/92 96/61/94 95/64/95
f 12/76/23 48/77/21 123/78/22
usemtl imageList000BCullBoth
f 75/79/96 35/80/75 36/81/76
f 49/82/97 75/79/96 36/81/76
f 37/83/77 75/79/96 50/84/98
f 37/83/77 35/80/75 75/79/96
usemtl imageList000C
f 51/85/99 109/86/49 52/87/100
f 86/87/101 53/86/51 51/85/99
f 53/86/51 54/88/50 51/85/99
f 51/85/99 54/88/50 109/86/49
f 134/89/102 51/90/99 55/91/28
f 110/92/34 51/90/99 134/89/102
usemtl imageList000D
f 112/93/103 56/94/104 21/95/42
f 66/96/105 56/94/104 112/93/103
f 106/97/38 21/95/42 56/94/104
f 106/97/38 56/94/104 57/98/106
f 112/93/103 57/99/106 58/100/107
f 106/97/38 57/99/106 112/93/103
f 112/93/103 58/100/107 66/96/105
f 59/101/46 60/102/108 61/103/45
f 61/103/45 60/102/108 62/104/109
f 61/105/45 62/106/109 63/107/48
f 63/107/48 62/106/109 73/108/110
f 63/107/48 73/108/110 64/109/111
f 63/110/48 64/111/111 59/112/46
f 59/112/46 64/111/111 60/113/108
f 58/100/107 57/99/106 65/114/112
f 65/114/112 66/96/105 58/100/107
f 57/98/106 56/94/104 65/114/112
f 65/114/112 56/94/104 66/96/105
f 67/103/60 68/102/113 69/101/62
f 70/104/114 68/102/113 67/103/60
f 27/107/61 70/106/114 67/105/60
f 71/108/115 70/106/114 27/107/61
f 72/109/116 71/108/115 27/107/61
f 69/112/62 72/111/116 27/110/61
f 68/113/113 72/111/116 69/112/62
f 64/115/111 73/116/110 60/117/108
f 60/117/108 73/116/110 62/118/109
f 70/118/114 71/116/115 68/117/113
f 68/117/113 71/116/115 72/115/116
usemtl imageList000FCullBoth
f 74/119/117 75/120/96 49/121/97
f 74/119/117 141/122/118 75/120/96
f 50/121/98 75/120/96 76/119/119
f 75/120/96 141/122/118 76/119/119
usemtl imageList0010
f 14/123/17 81/124/64 80/125/120
f 77/126/121 29/127/63 55/128/28
f 110/129/34 31/130/66 87/131/122
f 85/132/123 78/133/65 79/134/27
f 52/135/100 29/127/63 77/126/121
f 80/125/120 29/127/63 52/135/100
f 81/124/64 29/127/63 80/125/120
f 85/132/123 31/130/66 78/133/65
f 86/139/101 31/130/66 85/132/123
f 87/131/122 31/130/66 86/139/101
usemtl imageList0010CullBoth
f 82/136/124 83/137/124 84/138/124
f 88/140/125 89/141/125 90/142/125
usemtl imageList0011
f 41/143/83 91/144/82 92/145/10
f 92/145/10 91/144/82 1/146/7
f 93/147/81 40/148/80 2/149/8
f 2/149/8 40/148/80 5/150/9
f 91/151/82 93/152/81 1/153/7
f 1/153/7 93/152/81 2/154/8
f 5/155/9 41/156/83 92/157/10
f 40/158/80 41/156/83 5/155/9
f 98/145/126 94/144/92 95/143/95
f 102/146/127 94/144/92 98/145/126
f 100/149/128 96/148/94 47/147/93
f 99/150/129 96/148/94 100/149/128
f 102/153/127 47/152/93 94/151/92
f 100/154/128 47/152/93 102/153/127
f 98/157/126 95/156/95 99/155/129
f 99/155/129 95/156/95 96/158/94
f 97/159/12 98/160/126 99/161/129
f 7/162/13 99/161/129 100/163/128
f 7/164/13 100/165/128 101/166/15
f 101/166/15 100/165/128 102/167/127
f 101/166/15 102/167/127 97/168/12
f 97/159/12 102/169/127 98/160/126
f 97/159/12 99/161/129 7/162/13
usemtl imageList0013
f 103/170/39 116/171/4 115/172/130
f 19/173/3 116/171/4 103/170/39
f 120/174/54 20/175/37 114/176/57
f 104/177/36 114/176/57 20/175/37
f 119/175/40 105/176/58 111/177/41
f 105/176/58 119/175/40 118/174/59
f 106/178/38 103/179/39 21/180/42
f 103/170/39 8/171/14 9/173/16
f 115/172/130 8/171/14 103/170/39
f 109/181/49 10/182/18 14/183/17
f 79/183/27 121/182/24 53/181/51
f 107/184/6 108/185/1 19/186/3
f 51/187/99 52/188/100 77/189/121
f 109/190/49 80/191/120 52/192/100
f 109/190/49 14/193/17 80/191/120
f 51/194/99 77/195/121 55/196/28
f 110/197/34 87/198/122 51/194/99
f 85/191/123 79/193/27 53/190/51
f 86/192/101 85/191/123 53/190/51
f 87/189/122 86/188/101 51/187/99
f 9/186/16 97/185/12 6/184/11
usemtl imageList0014
f 111/199/41 105/200/58 112/201/103
f 105/200/58 113/202/52 112/201/103
f 112/201/103 113/202/52 114/200/57
f 112/201/103 114/200/57 104/199/36
f 111/199/41 112/201/103 21/203/42
f 106/203/38 112/201/103 104/199/36
f 10/204/18 113/202/52 105/200/58
f 114/200/57 113/202/52 121/204/24
usemtl imageList0015
f 115/205/130 116/206/4 20/207/37
f 117/208/131 20/207/37 120/209/54
f 117/208/131 120/209/54 122/210/132
f 122/210/132 118/209/59 117/208/131
f 118/209/59 119/207/40 117/208/131
f 115/205/130 20/207/37 117/208/131
f 117/208/131 119/207/40 115/205/130
f 119/207/40 8/206/14 115/205/130
f 120/209/54 121/211/24 122/210/132
f 122/210/132 121/211/24 123/212/22
f 123/212/22 10/211/18 122/210/132
f 122/210/132 10/211/18 118/209/59
usemtl imageList0016
f 124/213/86 125/214/85 126/215/133
f 127/216/134 124/217/86 126/218/133
f 127/216/134 48/219/21 124/217/86
f 15/220/20 48/219/21 127/216/134
f 128/221/67 127/216/134 126/218/133
f 32/222/72 127/216/134 128/221/67
f 32/222/72 129/223/87 127/216/134
f 129/223/87 15/220/20 127/216/134
f 130/216/135 16/220/25 131/223/89
f 130/216/135 131/223/89 132/222/68
f 128/221/67 130/216/135 132/222/68
f 126/218/133 130/216/135 128/221/67
f 130/216/135 12/219/23 16/220/25
f 46/217/91 12/219/23 130/216/135
f 126/218/133 46/217/91 130/216/135
f 126/215/133 125/214/85 46/213/91
usemtl imageList0017
f 133/224/30 134/225/102 55/226/28
f 43/227/90 134/228/102 135/229/136
f 18/230/33 134/228/102 43/227/90
f 45/231/32 18/230/33 43/227/90
f 110/226/34 134/225/102 18/224/33
f 44/232/70 135/229/136 136/233/137
f 43/227/90 135/229/136 44/232/70
f 44/232/70 136/233/137 137/234/69
f 137/235/69 136/236/137 138/237/71
f 138/232/71 135/229/136 139/227/88
f 136/233/137 135/229/136 138/232/71
f 139/227/88 133/230/30 140/231/31
f 139/227/88 134/228/102 133/230/30
f 135/229/136 134/228/102 139/227/88
usemtl imageList000ECullBoth
f 141/238/118 142/239/138 76/240/119
f 74/241/117 143/242/139 141/238/118
f 143/242/139 142/239/138 141/238/118
