<svg xmlns="http://www.w3.org/2000/svg" viewBox="0 0 256 256" width="256" height="256" role="img" aria-labelledby="title">
  <title id="title">Agent Smith</title>
  <defs>
    <linearGradient id="bg" x1="0" y1="0" x2="1" y2="1"><stop stop-color="#141633"/><stop offset="1" stop-color="#090b18"/></linearGradient>
    <linearGradient id="neon" x1="0" y1="0" x2="1" y2="1"><stop stop-color="#ff9d21"/><stop offset="1" stop-color="#ff5d24"/></linearGradient>
    <filter id="glow"><feGaussianBlur stdDeviation="3" result="b"/><feMerge><feMergeNode in="b"/><feMergeNode in="SourceGraphic"/></feMerge></filter>
    
  </defs>
  <rect width="256" height="256" rx="22" fill="url(#bg)"/><circle cx="128" cy="88" r="38" fill="#5f3828" stroke="#050711" stroke-width="8"/>
  <path d="M94 66h68l-7-31h-54z" fill="#172f34" stroke="#050711" stroke-width="7"/><path d="M107 44h42" stroke="#46f29a" stroke-width="6"/>
  <path d="M76 126q52 -34 104 0l17 73H59z" fill="#1b2850" stroke="#050711" stroke-width="9"/>
  <path d="M105 124h46v90h-46z" fill="#ff9d21" opacity=".62"/>
  <path d="M84 132l-52 51 14 16 56-42m71-24 47 51-17 15-50-43" fill="none" stroke="#253460" stroke-width="22" stroke-linecap="square"/>
  <path d="M91 196l-12 47h34l15-35 15 35h35l-17-47z" fill="#15192b" stroke="#050711" stroke-width="8"/>
  <g fill="#050711"><rect x="109" y="83" width="8" height="6"/><rect x="143" y="83" width="8" height="6"/></g>
  <path d="M116 104q12 8 25 0" fill="none" stroke="#2b1520" stroke-width="5"/>
  <path d="M101 82h22m14 0h22" stroke="#090b18" stroke-width="9"/><path d="M123 82h14" stroke="#090b18" stroke-width="4"/><rect x="177" y="130" width="34" height="73" rx="4" fill="#183d44" stroke="#050711" stroke-width="7"/>
</svg>