<svg xmlns="http://www.w3.org/2000/svg" viewBox="0 0 256 256" width="256" height="256" role="img" aria-labelledby="title">
  <title id="title">Plainclothes Officer</title>
  <defs>
    <linearGradient id="bg" x1="0" y1="0" x2="1" y2="1"><stop stop-color="#141633"/><stop offset="1" stop-color="#090b18"/></linearGradient>
    <linearGradient id="neon" x1="0" y1="0" x2="1" y2="1"><stop stop-color="#ff9d21"/><stop offset="1" stop-color="#ff5d24"/></linearGradient>
    <filter id="glow"><feGaussianBlur stdDeviation="3" result="b"/><feMerge><feMergeNode in="b"/><feMergeNode in="SourceGraphic"/></feMerge></filter>
    
  </defs>
  <rect width="256" height="256" rx="22" fill="url(#bg)"/><circle cx="128" cy="88" r="38" fill="#b97855" stroke="#050711" stroke-width="8"/>
  <path d="M96 69q8-35 32-35t32 35" fill="#383243" stroke="#050711" stroke-width="8"/>
  <path d="M71 126q57 -34 114 0l17 73H54z" fill="#1b2850" stroke="#050711" stroke-width="9"/>
  <path d="M105 124h46v90h-46z" fill="#ff465f" opacity=".62"/>
  <path d="M84 132l-52 51 14 16 56-42m71-24 47 51-17 15-50-43" fill="none" stroke="#253460" stroke-width="22" stroke-linecap="square"/>
  <path d="M91 196l-12 47h34l15-35 15 35h35l-17-47z" fill="#15192b" stroke="#050711" stroke-width="8"/>
  <g fill="#050711"><rect x="109" y="83" width="8" height="6"/><rect x="143" y="83" width="8" height="6"/></g>
  <path d="M116 104q12 8 25 0" fill="none" stroke="#2b1520" stroke-width="5"/>
  <path d="M78 129q50-34 100 0l-8 72H86z" fill="#3a3443" stroke="#050711" stroke-width="8"/><path d="M164 142l22 9-9 22-22-9z" fill="#ffd166"/>
</svg>