<svg xmlns="http://www.w3.org/2000/svg" viewBox="0 0 256 256" width="256" height="256" role="img" aria-labelledby="title">
  <title id="title">Boat</title>
  <defs>
    <linearGradient id="bg" x1="0" y1="0" x2="1" y2="1"><stop stop-color="#141633"/><stop offset="1" stop-color="#090b18"/></linearGradient>
    <linearGradient id="neon" x1="0" y1="0" x2="1" y2="1"><stop stop-color="#ff9d21"/><stop offset="1" stop-color="#ff5d24"/></linearGradient>
    <filter id="glow"><feGaussianBlur stdDeviation="3" result="b"/><feMerge><feMergeNode in="b"/><feMergeNode in="SourceGraphic"/></feMerge></filter>
    <pattern id="scan" width="8" height="8" patternUnits="userSpaceOnUse"><path d="M0 7.5h8" stroke="#f4edda" stroke-width="1" opacity=".08"/></pattern>
    <radialGradient id="vignette" cx="50%" cy="42%" r="72%"><stop offset="52%" stop-color="#090b18" stop-opacity="0"/><stop offset="100%" stop-color="#090b18" stop-opacity=".72"/></radialGradient>
    
  </defs>
  <rect width="256" height="256" fill="#0d1021"/><circle cx="111" cy="40" r="18" fill="#ff465f" opacity=".32"/><path d="M0 111h40V98h41v13h58V98h61v13h100v145H0z" fill="#1b203d"/><g fill="#ff5d24" opacity=".7"><path d="M18 81h8v12h-8zm20-18h8v12h-8zm55 7h9v13h-9zm25-28h9v13h-9zm51 22h9v13h-9zm24-35h9v13h-9zm27 26h9v13h-9z"/></g><path d="M0 184h256v72H0z" fill="#111522"/><path d="M0 213h256" stroke="#ff465f" stroke-width="5" stroke-dasharray="24 18" opacity=".5"/><ellipse cx="128" cy="220" rx="89" ry="23" fill="#ff5d24" opacity=".12"/><path d="M22 32h212v198H22z" fill="#111426" fill-opacity=".62" stroke="#46f29a" stroke-width="5"/><path d="M35 154h186l-31 55H65z" fill="#ff5d24" stroke="#090b18" stroke-width="10"/><path d="M89 96h82v58H89z" fill="#f4edda" stroke="#090b18" stroke-width="9"/><path d="M130 47v107M130 52l58 39h-58z" fill="#ffd166" stroke="#090b18" stroke-width="8"/><path d="M27 223q24-18 48 0t48 0 48 0 48 0" fill="none" stroke="#42c8ff" stroke-width="11"/><rect width="256" height="256" fill="url(#scan)" pointer-events="none"/><rect width="256" height="256" fill="url(#vignette)" pointer-events="none"/><path d="M1 1h254v254H1z" fill="none" stroke="#f4edda" stroke-opacity=".11" stroke-width="2" vector-effect="non-scaling-stroke" pointer-events="none"/>
</svg>