<svg xmlns="http://www.w3.org/2000/svg" viewBox="0 0 256 256" width="256" height="256" role="img" aria-labelledby="title">
  <title id="title">Ruger</title>
  <defs>
    <linearGradient id="bg" x1="0" y1="0" x2="1" y2="1"><stop stop-color="#141633"/><stop offset="1" stop-color="#090b18"/></linearGradient>
    <linearGradient id="neon" x1="0" y1="0" x2="1" y2="1"><stop stop-color="#ff9d21"/><stop offset="1" stop-color="#ff5d24"/></linearGradient>
    <filter id="glow"><feGaussianBlur stdDeviation="3" result="b"/><feMerge><feMergeNode in="b"/><feMergeNode in="SourceGraphic"/></feMerge></filter>
    <pattern id="scan" width="8" height="8" patternUnits="userSpaceOnUse"><path d="M0 7.5h8" stroke="#f4edda" stroke-width="1" opacity=".08"/></pattern>
    <radialGradient id="vignette" cx="50%" cy="42%" r="72%"><stop offset="52%" stop-color="#090b18" stop-opacity="0"/><stop offset="100%" stop-color="#090b18" stop-opacity=".72"/></radialGradient>
    
  </defs>
  <rect width="256" height="256" fill="#0d1021"/><circle cx="170" cy="49" r="24" fill="#ff9d21" opacity=".32"/><path d="M0 125h53V111h49v14h56V81h57v44h100v131H0z" fill="#1b203d"/><g fill="#a879ff" opacity=".7"><path d="M18 95h8v12h-8zm20-18h8v12h-8zm55 7h9v13h-9zm25-28h9v13h-9zm51 22h9v13h-9zm24-35h9v13h-9zm27 26h9v13h-9z"/></g><path d="M0 184h256v72H0z" fill="#241322"/><path d="M0 213h256" stroke="#ff465f" stroke-width="5" stroke-dasharray="24 18" opacity=".5"/><ellipse cx="128" cy="220" rx="89" ry="23" fill="#a879ff" opacity=".12"/><path d="M21 62h214v163H21z" fill="#111426" fill-opacity=".8" stroke="#a879ff" stroke-width="5"/><path d="M27 77h190v35H91l-23 23H34z" fill="#292d3d" stroke="#090b18" stroke-width="10"/><path d="M79 111h73l-17 102H82l25-76-28-8z" fill="#8a4d2c" stroke="#090b18" stroke-width="10"/><path d="M184 65h26v12h-26z" fill="#46f29a"/><rect width="256" height="256" fill="url(#scan)" pointer-events="none"/><rect width="256" height="256" fill="url(#vignette)" pointer-events="none"/><path d="M1 1h254v254H1z" fill="none" stroke="#f4edda" stroke-opacity=".11" stroke-width="2" vector-effect="non-scaling-stroke" pointer-events="none"/>
</svg>