<svg xmlns="http://www.w3.org/2000/svg" viewBox="0 0 768 432" width="768" height="432" role="img" aria-labelledby="title">
  <title id="title">bronx map</title>
  <defs>
    <linearGradient id="bg" x1="0" y1="0" x2="1" y2="1"><stop stop-color="#141633"/><stop offset="1" stop-color="#090b18"/></linearGradient>
    <linearGradient id="neon" x1="0" y1="0" x2="1" y2="1"><stop stop-color="#ff9d21"/><stop offset="1" stop-color="#ff5d24"/></linearGradient>
    <filter id="glow"><feGaussianBlur stdDeviation="3" result="b"/><feMerge><feMergeNode in="b"/><feMergeNode in="SourceGraphic"/></feMerge></filter>
    
  </defs>
  <rect width="768" height="432" fill="url(#bg)"/><path d="M0 292h768v140H0z" fill="#111522"/><path d="M0 112h768v26H0z" fill="#202638"/><path d="M0 100h768v9H0z" fill="#ff9d21"/><g stroke="#090b18" stroke-width="14"><path d="M74 123v206m162-206v206m162-206v206m162-206v206m134-206v206"/></g><path d="M31 182h263v112H31zm464-43h238v155H495z" fill="#462f34" stroke="#090b18" stroke-width="12"/><g fill="#46f29a"><path d="M58 208h33v31H58zm55 0h33v31h-33zm55 0h33v31h-33zm55 0h33v31h-33zm301-10h35v33h-35zm57 0h35v33h-35zm57 0h35v33h-35zm-114 58h35v28h-35zm57 0h35v28h-35z"/></g><path d="M321 77h192q21 0 21 21v40H300V98q0-21 21-21z" fill="#39405a" stroke="#090b18" stroke-width="11"/><path d="M330 94h44v25h-44zm60 0h44v25h-44zm60 0h44v25h-44z" fill="#42c8ff"/><path d="M40 367C162 201 270 342 388 193S622 79 727 171" fill="none" stroke="#f4edda" stroke-width="16" stroke-dasharray="18 12"/><path d="M351 163q0-47 39-47t39 47q0 39-39 87-39-48-39-87z" fill="#ff465f" stroke="#090b18" stroke-width="8"/><circle cx="390" cy="161" r="13" fill="#f4edda"/><path d="M0 422h768" stroke="#ff9d21" stroke-width="10"/>
</svg>