<svg xmlns="http://www.w3.org/2000/svg" viewBox="0 0 256 256" width="256" height="256" role="img" aria-labelledby="title">
  <title id="title">Loan Shark</title>
  <defs>
    <linearGradient id="bg" x1="0" y1="0" x2="1" y2="1"><stop stop-color="#141633"/><stop offset="1" stop-color="#090b18"/></linearGradient>
    <linearGradient id="neon" x1="0" y1="0" x2="1" y2="1"><stop stop-color="#ff9d21"/><stop offset="1" stop-color="#ff5d24"/></linearGradient>
    <filter id="glow"><feGaussianBlur stdDeviation="3" result="b"/><feMerge><feMergeNode in="b"/><feMergeNode in="SourceGraphic"/></feMerge></filter>
    
  </defs>
  <rect width="256" height="256" rx="22" fill="url(#bg)"/><circle cx="128" cy="88" r="38" fill="#edbd98" stroke="#050711" stroke-width="8"/>
  <path d="M92 82q-3-48 36-50 42 2 40 53l-15-27-12 20-14-24-15 26z" fill="#40271d" stroke="#050711" stroke-width="7"/>
  <path d="M67 126q61 -34 122 0l17 73H50z" fill="#ffd166" stroke="#050711" stroke-width="9"/>
  <path d="M105 124h46v90h-46z" fill="#141633" opacity=".62"/>
  <path d="M84 132l-52 51 14 16 56-42m71-24 47 51-17 15-50-43" fill="none" stroke="#edbd98" stroke-width="22" stroke-linecap="square"/>
  <path d="M91 196l-12 47h34l15-35 15 35h35l-17-47z" fill="#15192b" stroke="#050711" stroke-width="8"/>
  <g fill="#050711"><rect x="109" y="83" width="8" height="6"/><rect x="143" y="83" width="8" height="6"/></g>
  <path d="M116 104q12 8 25 0" fill="none" stroke="#2b1520" stroke-width="5"/>
  <path d="M99 142q29 28 58 0" fill="none" stroke="#ffd166" stroke-width="7"/><path d="M159 103h35" stroke="#ff9d21" stroke-width="7"/><circle cx="196" cy="103" r="5" fill="#ff465f"/>
</svg>