<svg xmlns="http://www.w3.org/2000/svg" viewBox="0 0 256 256" width="256" height="256" role="img" aria-labelledby="title">
  <title id="title">Market Seller</title>
  <defs>
    <linearGradient id="bg" x1="0" y1="0" x2="1" y2="1"><stop stop-color="#141633"/><stop offset="1" stop-color="#090b18"/></linearGradient>
    <linearGradient id="neon" x1="0" y1="0" x2="1" y2="1"><stop stop-color="#ff9d21"/><stop offset="1" stop-color="#ff5d24"/></linearGradient>
    <filter id="glow"><feGaussianBlur stdDeviation="3" result="b"/><feMerge><feMergeNode in="b"/><feMergeNode in="SourceGraphic"/></feMerge></filter>
    <pattern id="scan" width="8" height="8" patternUnits="userSpaceOnUse"><path d="M0 7.5h8" stroke="#f4edda" stroke-width="1" opacity=".08"/></pattern>
    <radialGradient id="vignette" cx="50%" cy="42%" r="72%"><stop offset="52%" stop-color="#090b18" stop-opacity="0"/><stop offset="100%" stop-color="#090b18" stop-opacity=".72"/></radialGradient>
    
  </defs>
  <rect width="256" height="256" fill="#0d1021"/><circle cx="62" cy="57" r="27" fill="#a879ff" opacity=".32"/><path d="M0 131h58V88h38v43h47V81h71v50h100v125H0z" fill="#1b203d"/><g fill="#ff465f" opacity=".7"><path d="M18 101h8v12h-8zm20-18h8v12h-8zm55 7h9v13h-9zm25-28h9v13h-9zm51 22h9v13h-9zm24-35h9v13h-9zm27 26h9v13h-9z"/></g><path d="M0 184h256v72H0z" fill="#111522"/><path d="M0 213h256" stroke="#a879ff" stroke-width="5" stroke-dasharray="24 18" opacity=".5"/><ellipse cx="128" cy="220" rx="89" ry="23" fill="#ff465f" opacity=".12"/><path d="M47 205h162" stroke="#ff465f" stroke-width="9" opacity=".3"/><circle cx="128" cy="88" r="38" fill="#7b4930" stroke="#050711" stroke-width="8"/>
  <path d="M107 48l21-21 21 21 11 33q-27-14-64 1z" fill="#7a2945" stroke="#050711" stroke-width="7"/>
  <path d="M79 126q49 -34 98 0l17 73H62z" fill="#ff465f" stroke="#050711" stroke-width="9"/>
  <path d="M105 124h46v90h-46z" fill="#141633" opacity=".62"/>
  <path d="M84 132l-52 51 14 16 56-42m71-24 47 51-17 15-50-43" fill="none" stroke="#7b4930" stroke-width="22" stroke-linecap="square"/>
  <path d="M91 196l-12 47h34l15-35 15 35h35l-17-47z" fill="#15192b" stroke="#050711" stroke-width="8"/>
  <g fill="#050711"><rect x="109" y="83" width="8" height="6"/><rect x="143" y="83" width="8" height="6"/></g>
  <path d="M116 104q12 8 25 0" fill="none" stroke="#2b1520" stroke-width="5"/>
  <path d="M155 167h75v50h-75z" fill="#8a4d2c" stroke="#050711" stroke-width="8"/><path d="M168 180h14m14 0h20" stroke="#ffd166" stroke-width="7"/><rect width="256" height="256" fill="url(#scan)" pointer-events="none"/><rect width="256" height="256" fill="url(#vignette)" pointer-events="none"/><path d="M1 1h254v254H1z" fill="none" stroke="#f4edda" stroke-opacity=".11" stroke-width="2" vector-effect="non-scaling-stroke" pointer-events="none"/>
</svg>