solid ASCII
  facet normal -1.000000e+00 0.000000e+00 2.842171e-15
    outer loop
      vertex   2.500000e+00 0.000000e+00 1.150000e+02
      vertex   2.500000e+00 -9.800000e+01 1.150000e+02
      vertex   2.500000e+00 0.000000e+00 1.175000e+02
    endloop
  endfacet
  facet normal -1.000000e+00 0.000000e+00 2.842171e-15
    outer loop
      vertex   2.500000e+00 0.000000e+00 1.175000e+02
      vertex   2.500000e+00 -9.800000e+01 1.150000e+02
      vertex   2.500000e+00 -9.800000e+01 1.175000e+02
    endloop
  endfacet
  facet normal 0.000000e+00 1.000000e+00 -0.000000e+00
    outer loop
      vertex   8.250000e+01 0.000000e+00 1.150000e+02
      vertex   2.500000e+00 0.000000e+00 1.150000e+02
      vertex   8.250000e+01 0.000000e+00 1.175000e+02
    endloop
  endfacet
  facet normal 0.000000e+00 1.000000e+00 0.000000e+00
    outer loop
      vertex   8.250000e+01 0.000000e+00 1.175000e+02
      vertex   2.500000e+00 0.000000e+00 1.150000e+02
      vertex   2.500000e+00 0.000000e+00 1.175000e+02
    endloop
  endfacet
  facet normal 1.000000e+00 0.000000e+00 0.000000e+00
    outer loop
      vertex   8.250000e+01 -9.800000e+01 1.150000e+02
      vertex   8.250000e+01 0.000000e+00 1.150000e+02
      vertex   8.250000e+01 -9.800000e+01 1.175000e+02
    endloop
  endfacet
  facet normal 1.000000e+00 -0.000000e+00 0.000000e+00
    outer loop
      vertex   8.250000e+01 -9.800000e+01 1.175000e+02
      vertex   8.250000e+01 0.000000e+00 1.150000e+02
      vertex   8.250000e+01 0.000000e+00 1.175000e+02
    endloop
  endfacet
  facet normal 0.000000e+00 -1.000000e+00 0.000000e+00
    outer loop
      vertex   2.500000e+00 -9.800000e+01 1.150000e+02
      vertex   8.250000e+01 -9.800000e+01 1.150000e+02
      vertex   2.500000e+00 -9.800000e+01 1.175000e+02
    endloop
  endfacet
  facet normal 0.000000e+00 -1.000000e+00 0.000000e+00
    outer loop
      vertex   2.500000e+00 -9.800000e+01 1.175000e+02
      vertex   8.250000e+01 -9.800000e+01 1.150000e+02
      vertex   8.250000e+01 -9.800000e+01 1.175000e+02
    endloop
  endfacet
  facet normal 0.000000e+00 0.000000e+00 1.000000e+00
    outer loop
      vertex   2.500000e+00 -9.800000e+01 1.175000e+02
      vertex   8.250000e+01 -9.800000e+01 1.175000e+02
      vertex   2.500000e+00 0.000000e+00 1.175000e+02
    endloop
  endfacet
  facet normal -0.000000e+00 0.000000e+00 1.000000e+00
    outer loop
      vertex   2.500000e+00 0.000000e+00 1.175000e+02
      vertex   8.250000e+01 -9.800000e+01 1.175000e+02
      vertex   8.250000e+01 0.000000e+00 1.175000e+02
    endloop
  endfacet
  facet normal 0.000000e+00 0.000000e+00 -1.000000e+00
    outer loop
      vertex   8.250000e+01 -9.800000e+01 1.150000e+02
      vertex   2.500000e+00 -9.800000e+01 1.150000e+02
      vertex   8.250000e+01 0.000000e+00 1.150000e+02
    endloop
  endfacet
  facet normal -0.000000e+00 0.000000e+00 -1.000000e+00
    outer loop
      vertex   8.250000e+01 0.000000e+00 1.150000e+02
      vertex   2.500000e+00 -9.800000e+01 1.150000e+02
      vertex   2.500000e+00 0.000000e+00 1.150000e+02
    endloop
  endfacet
endsolid
